<svg width="20" height="20" viewBox="0 0 20 20" fill="none" xmlns="http://www.w3.org/2000/svg">
<g clip-path="url(#clip0_4236_9331)">
<path d="M11.6667 1.6665C13.1916 1.66578 14.6708 2.18789 15.8574 3.14578C17.044 4.10366 17.8663 5.4394 18.1872 6.93023C18.5082 8.42106 18.3083 9.97684 17.6209 11.3381C16.9335 12.6994 15.8002 13.7839 14.41 14.4107C13.9656 15.3931 13.2896 16.2531 12.4399 16.9169C11.5902 17.5806 10.5921 18.0284 9.53137 18.2218C8.4706 18.4152 7.37875 18.3483 6.34948 18.0271C5.3202 17.7058 4.3842 17.1397 3.62177 16.3772C2.85933 15.6148 2.2932 14.6788 1.97193 13.6495C1.65067 12.6203 1.58386 11.5284 1.77722 10.4676C1.97059 9.40687 2.41836 8.40883 3.08215 7.55912C3.74593 6.7094 4.60591 6.03337 5.58834 5.589C6.11679 4.41975 6.97133 3.42776 8.04946 2.73201C9.12759 2.03627 10.3835 1.66631 11.6667 1.6665ZM8.33334 6.6665C7.67673 6.6665 7.02655 6.79583 6.41992 7.04711C5.81329 7.29838 5.2621 7.66668 4.79781 8.13097C4.33351 8.59526 3.96521 9.14646 3.71394 9.75309C3.46267 10.3597 3.33334 11.0099 3.33334 11.6665C3.33334 12.3231 3.46267 12.9733 3.71394 13.5799C3.96521 14.1866 4.33351 14.7377 4.79781 15.202C5.2621 15.6663 5.81329 16.0346 6.41992 16.2859C7.02655 16.5372 7.67673 16.6665 8.33334 16.6665C9.65942 16.6665 10.9312 16.1397 11.8689 15.202C12.8066 14.2644 13.3333 12.9926 13.3333 11.6665C13.3333 10.3404 12.8066 9.06865 11.8689 8.13097C10.9312 7.19329 9.65942 6.6665 8.33334 6.6665ZM9.16667 7.49984V8.33317H10.8333V9.99984H7.50001C7.39588 9.99965 7.29546 10.0384 7.21852 10.1086C7.14158 10.1787 7.09368 10.2752 7.08428 10.3789C7.07487 10.4826 7.10463 10.586 7.16769 10.6689C7.23075 10.7517 7.32255 10.808 7.42501 10.8265L7.50001 10.8332H9.16667C9.71921 10.8332 10.2491 11.0527 10.6398 11.4434C11.0305 11.8341 11.25 12.364 11.25 12.9165C11.25 13.469 11.0305 13.9989 10.6398 14.3896C10.2491 14.7803 9.71921 14.9998 9.16667 14.9998V15.8332H7.50001V14.9998H5.83334V13.3332H9.16667C9.27079 13.3334 9.37121 13.2946 9.44816 13.2244C9.5251 13.1543 9.57299 13.0578 9.5824 12.9542C9.59181 12.8505 9.56205 12.747 9.49899 12.6641C9.43593 12.5813 9.34413 12.5251 9.24167 12.5065L9.16667 12.4998H7.50001C6.94747 12.4998 6.41757 12.2803 6.02687 11.8896C5.63617 11.4989 5.41667 10.969 5.41667 10.4165C5.41667 9.86397 5.63617 9.33407 6.02687 8.94337C6.41757 8.55267 6.94747 8.33317 7.50001 8.33317V7.49984H9.16667ZM11.6667 3.33317C10.9606 3.33234 10.2624 3.48146 9.61819 3.77064C8.97403 4.05982 8.39861 4.48249 7.93001 5.01067C8.87189 4.95349 9.81519 5.09692 10.6975 5.43146C11.5798 5.766 12.3811 6.28404 13.0483 6.95132C13.7155 7.6186 14.2334 8.41992 14.5679 9.30228C14.9023 10.1846 15.0456 11.128 14.9883 12.0698C15.746 11.3962 16.281 10.5081 16.5224 9.52343C16.7637 8.53873 16.7 7.50393 16.3397 6.55627C15.9794 5.60861 15.3395 4.79287 14.5049 4.21724C13.6704 3.64161 12.6805 3.33329 11.6667 3.33317Z" fill="#2932CC"/>
</g>
<defs>
<clipPath id="clip0_4236_9331">
<rect width="20" height="20" fill="white"/>
</clipPath>
</defs>
</svg>
