<svg width="20" height="20" viewBox="0 0 20 20" fill="none" xmlns="http://www.w3.org/2000/svg">
<path d="M14.1667 3.3335C15.4927 3.3335 16.7645 3.86028 17.7022 4.79796C18.6399 5.73564 19.1667 7.00741 19.1667 8.3335V11.6668C19.1667 12.9929 18.6399 14.2647 17.7022 15.2024C16.7645 16.14 15.4927 16.6668 14.1667 16.6668H5.83333C4.50725 16.6668 3.23548 16.14 2.2978 15.2024C1.36012 14.2647 0.833332 12.9929 0.833332 11.6668V8.3335C0.833332 7.00741 1.36012 5.73564 2.2978 4.79796C3.23548 3.86028 4.50725 3.3335 5.83333 3.3335H14.1667ZM14.1667 5.00016H5.83333C4.97813 5.00016 4.15564 5.32886 3.53599 5.91827C2.91634 6.50767 2.54693 7.3127 2.50417 8.16683L2.5 8.3335V11.6668C2.5 12.522 2.82869 13.3445 3.4181 13.9642C4.00751 14.5838 4.81253 14.9532 5.66667 14.996L5.83333 15.0002H14.1667C15.0219 15.0002 15.8444 14.6715 16.464 14.0821C17.0837 13.4927 17.4531 12.6876 17.4958 11.8335L17.5 11.6668V8.3335C17.5 7.47829 17.1713 6.65581 16.5819 6.03615C15.9925 5.4165 15.1875 5.04709 14.3333 5.00433L14.1667 5.00016ZM8.33333 7.50016V9.16683H10V10.8335H8.3325L8.33333 12.5002H6.66667L6.66583 10.8335H5V9.16683H6.66667V7.50016H8.33333ZM15 10.8335V12.5002H13.3333V10.8335H15ZM13.3333 7.50016V9.16683H11.6667V7.50016H13.3333Z" fill="#2932CC"/>
</svg>
