<svg width="25" height="24" viewBox="0 0 25 24" fill="none" xmlns="http://www.w3.org/2000/svg">
<g clip-path="url(#clip0_4254_9860)">
<path d="M4.25 4.5H3.75V5V19V19.5H4.25H20.25H20.75V19V5V4.5H20.25H4.25ZM15.3966 10.1466L15.7501 9.793L15.3966 9.43945L14.4571 8.5H17.75V11.7929L16.8106 10.8534L16.457 10.4999L16.1034 10.8534L12.593 14.3639L10.8256 12.5964L10.4721 12.243L10.1185 12.5964L7.64306 15.071L6.93611 14.364L10.4719 10.8282L12.2394 12.5965L12.5929 12.9502L12.9466 12.5966L15.3966 10.1466ZM3.25 3.5H21.25C21.3826 3.5 21.5098 3.55268 21.6036 3.64645C21.6973 3.74021 21.75 3.86739 21.75 4V20C21.75 20.1326 21.6973 20.2598 21.6036 20.3536C21.5098 20.4473 21.3826 20.5 21.25 20.5H3.25C3.11739 20.5 2.99021 20.4473 2.89645 20.3536C2.80268 20.2598 2.75 20.1326 2.75 20V4C2.75 3.86739 2.80268 3.74021 2.89645 3.64645C2.99021 3.55268 3.11739 3.5 3.25 3.5Z" fill="#9CA0AF" stroke="#9CA0AF"/>
</g>
<defs>
<clipPath id="clip0_4254_9860">
<rect width="24" height="24" fill="white" transform="translate(0.25)"/>
</clipPath>
</defs>
</svg>
