<svg width="20" height="20" viewBox="0 0 20 20" fill="none" xmlns="http://www.w3.org/2000/svg">
<g clip-path="url(#clip0_4236_6494)">
<path d="M4.16666 7.49984C4.38768 7.49984 4.59964 7.58763 4.75592 7.74392C4.9122 7.9002 5 8.11216 5 8.33317C6.30928 8.33124 7.58081 8.77173 8.60833 9.58317H10.4167C11.5275 9.58317 12.525 10.0665 13.2117 10.8332H15.8333C16.621 10.833 17.3927 11.056 18.0588 11.4765C18.7249 11.897 19.2581 12.4978 19.5967 13.209C17.6258 15.8098 14.435 17.4998 10.8333 17.4998C8.50833 17.4998 6.54166 16.9973 4.95 16.1182C4.8917 16.2791 4.78519 16.418 4.64501 16.5162C4.50482 16.6143 4.33778 16.6668 4.16666 16.6665H1.66666C1.44565 16.6665 1.23369 16.5787 1.07741 16.4224C0.921126 16.2661 0.833328 16.0542 0.833328 15.8332V8.33317C0.833328 8.11216 0.921126 7.9002 1.07741 7.74392C1.23369 7.58763 1.44565 7.49984 1.66666 7.49984H4.16666ZM5.00083 9.99984L5 14.1848L5.0375 14.2115C6.53333 15.2615 8.48166 15.8332 10.8333 15.8332C13.3367 15.8332 15.6658 14.8698 17.3625 13.2248L17.4733 13.114L17.3733 13.0307C16.9798 12.7225 16.5028 12.5396 16.0042 12.5057L15.8333 12.4998H14.0742C14.1342 12.7682 14.1667 13.0465 14.1667 13.3332V14.1665H6.66666V12.4998L12.325 12.499L12.2967 12.434C12.137 12.1003 11.8913 11.8151 11.5849 11.6077C11.2785 11.4003 10.9225 11.2783 10.5533 11.254L10.4167 11.2498H7.975C7.58776 10.8538 7.12522 10.5392 6.6146 10.3245C6.10397 10.1098 5.55557 9.99944 5.00166 9.99984H5.00083ZM3.33333 9.1665H2.49999V14.9998H3.33333V9.1665ZM15 4.1665C15.663 4.1665 16.2989 4.4299 16.7678 4.89874C17.2366 5.36758 17.5 6.00346 17.5 6.6665C17.5 7.32955 17.2366 7.96543 16.7678 8.43427C16.2989 8.90311 15.663 9.1665 15 9.1665C14.337 9.1665 13.7011 8.90311 13.2322 8.43427C12.7634 7.96543 12.5 7.32955 12.5 6.6665C12.5 6.00346 12.7634 5.36758 13.2322 4.89874C13.7011 4.4299 14.337 4.1665 15 4.1665ZM15 5.83317C14.779 5.83317 14.567 5.92097 14.4107 6.07725C14.2545 6.23353 14.1667 6.44549 14.1667 6.6665C14.1667 6.88752 14.2545 7.09948 14.4107 7.25576C14.567 7.41204 14.779 7.49984 15 7.49984C15.221 7.49984 15.433 7.41204 15.5893 7.25576C15.7455 7.09948 15.8333 6.88752 15.8333 6.6665C15.8333 6.44549 15.7455 6.23353 15.5893 6.07725C15.433 5.92097 15.221 5.83317 15 5.83317ZM9.16666 1.6665C9.8297 1.6665 10.4656 1.9299 10.9344 2.39874C11.4033 2.86758 11.6667 3.50346 11.6667 4.1665C11.6667 4.82955 11.4033 5.46543 10.9344 5.93427C10.4656 6.40311 9.8297 6.6665 9.16666 6.6665C8.50362 6.6665 7.86774 6.40311 7.39889 5.93427C6.93005 5.46543 6.66666 4.82955 6.66666 4.1665C6.66666 3.50346 6.93005 2.86758 7.39889 2.39874C7.86774 1.9299 8.50362 1.6665 9.16666 1.6665ZM9.16666 3.33317C8.94565 3.33317 8.73369 3.42097 8.57741 3.57725C8.42113 3.73353 8.33333 3.94549 8.33333 4.1665C8.33333 4.38752 8.42113 4.59948 8.57741 4.75576C8.73369 4.91204 8.94565 4.99984 9.16666 4.99984C9.38768 4.99984 9.59964 4.91204 9.75592 4.75576C9.9122 4.59948 10 4.38752 10 4.1665C10 3.94549 9.9122 3.73353 9.75592 3.57725C9.59964 3.42097 9.38768 3.33317 9.16666 3.33317Z" fill="#2932CC"/>
</g>
<defs>
<clipPath id="clip0_4236_6494">
<rect width="20" height="20" fill="white"/>
</clipPath>
</defs>
</svg>
