<svg width="20" height="20" viewBox="0 0 20 20" fill="none" xmlns="http://www.w3.org/2000/svg">
<path d="M3.66667 14.9998V15.4998H4.16667H15.8333H16.3333V14.9998V9.19234C16.3333 5.68245 13.4999 2.83317 10 2.83317C6.5001 2.83317 3.66667 5.68245 3.66667 9.19234V14.9998ZM10 2.1665C13.8639 2.1665 17 5.31022 17 9.19234V16.1665H3V9.19234C3 5.31022 6.13606 2.1665 10 2.1665ZM11.5023 17.9998C11.4253 18.2312 11.2952 18.4438 11.1196 18.6194C10.8227 18.9164 10.4199 19.0832 10 19.0832C9.58007 19.0832 9.17735 18.9164 8.88041 18.6194C8.70479 18.4438 8.57468 18.2312 8.49769 17.9998H11.5023Z" fill="#F5F5FF" stroke="#F5F5FF"/>
</svg>
