<svg width="25" height="24" viewBox="0 0 25 24" fill="none" xmlns="http://www.w3.org/2000/svg">
<g clip-path="url(#clip0_4254_518)">
<path d="M21 11V10.5H20.5H4.5H4V11V19V19.5H4.5H20.5H21V19V11ZM20.5 9.5H21V9V5V4.5H20.5H4.5H4V5V9V9.5H4.5H20.5ZM3.5 3.5H21.5C21.6326 3.5 21.7598 3.55268 21.8536 3.64645C21.9473 3.74021 22 3.86739 22 4V20C22 20.1326 21.9473 20.2598 21.8536 20.3536C21.7598 20.4473 21.6326 20.5 21.5 20.5H3.5C3.36739 20.5 3.24021 20.4473 3.14645 20.3536C3.05268 20.2598 3 20.1326 3 20V4C3 3.86739 3.05268 3.74021 3.14645 3.64645C3.24021 3.55268 3.36739 3.5 3.5 3.5ZM15 15.5H18V16.5H15V15.5Z" fill="#2932CC" stroke="#9CA0AF"/>
</g>
<defs>
<clipPath id="clip0_4254_518">
<rect width="24" height="24" fill="white" transform="translate(0.5)"/>
</clipPath>
</defs>
</svg>
