<svg width="20" height="20" viewBox="0 0 20 20" fill="none" xmlns="http://www.w3.org/2000/svg">
<g clip-path="url(#clip0_4236_6121)">
<path d="M9.16667 11.6665V9.1665H10.8333V11.6665H15C15.221 11.6665 15.433 11.7543 15.5893 11.9106C15.7455 12.0669 15.8333 12.2788 15.8333 12.4998V17.4998C15.8333 17.7209 15.7455 17.9328 15.5893 18.0891C15.433 18.2454 15.221 18.3332 15 18.3332H5C4.77899 18.3332 4.56703 18.2454 4.41074 18.0891C4.25446 17.9328 4.16667 17.7209 4.16667 17.4998V12.4998C4.16667 12.2788 4.25446 12.0669 4.41074 11.9106C4.56703 11.7543 4.77899 11.6665 5 11.6665H9.16667ZM2.09167 7.364C3.19583 4.05317 6.32 1.6665 10 1.6665C13.68 1.6665 16.805 4.05317 17.9083 7.364L16.3267 7.89067C15.8839 6.56295 15.0347 5.40817 13.8992 4.58988C12.7637 3.77159 11.3996 3.33126 10 3.33126C8.6004 3.33126 7.23627 3.77159 6.1008 4.58988C4.96534 5.40817 4.11609 6.56295 3.67333 7.89067L2.0925 7.364H2.09167ZM5.255 8.41817C5.58738 7.42268 6.22444 6.55694 7.076 5.9435C7.92756 5.33005 8.95049 4.99996 10 4.99996C11.0495 4.99996 12.0724 5.33005 12.924 5.9435C13.7756 6.55694 14.4126 7.42268 14.745 8.41817L13.1633 8.94567C12.9417 8.28201 12.517 7.70485 11.9493 7.29589C11.3816 6.88692 10.6997 6.66687 10 6.66687C9.30033 6.66687 8.61837 6.88692 8.05067 7.29589C7.48296 7.70485 7.05825 8.28201 6.83667 8.94567L5.255 8.41817ZM5.83333 13.3332V16.6665H14.1667V13.3332H5.83333Z" fill="#2932CC"/>
</g>
<defs>
<clipPath id="clip0_4236_6121">
<rect width="20" height="20" fill="white"/>
</clipPath>
</defs>
</svg>
