<svg width="413" height="356" viewBox="0 0 413 356" fill="none" xmlns="http://www.w3.org/2000/svg">
<g opacity="0.1" clip-path="url(#clip0_692_5453)">
<path d="M184.702 355.628H37.4008C30.8444 355.632 24.4026 353.664 18.723 349.921C13.0435 346.177 8.32651 340.79 5.04652 334.302C1.76652 327.813 0.0391365 320.452 0.0380864 312.959C0.0370363 305.466 1.76226 298.104 5.04044 291.615L62.5423 177.813H170.233L134.295 248.939H313.925L297.776 280.946C286.315 303.635 269.834 322.479 249.987 335.587C230.139 348.696 207.625 355.607 184.702 355.628Z" fill="white"/>
<path d="M98.481 106.688H278.111L242.173 177.814H349.958L407.459 64.0131C410.736 57.5262 412.461 50.1679 412.462 42.6775C412.462 35.1871 410.737 27.8285 407.461 21.3413C404.185 14.854 399.472 9.4666 393.797 5.72046C388.122 1.97433 381.684 0.00144064 375.13 2.03541e-06H227.829C204.885 -0.00432645 182.344 6.89511 162.474 20.0047C142.603 33.1144 126.102 51.9721 114.63 74.6819L98.481 106.688Z" fill="white"/>
</g>
<defs>
<clipPath id="clip0_692_5453">
<rect width="412.5" height="355.628" fill="white"/>
</clipPath>
</defs>
</svg>
