<svg width="25" height="24" viewBox="0 0 25 24" fill="none" xmlns="http://www.w3.org/2000/svg">
<g clip-path="url(#clip0_4254_9844)">
<path d="M18.25 7V7.5H18.75H21.75C21.8826 7.5 22.0098 7.55268 22.1036 7.64645C22.1973 7.74021 22.25 7.86739 22.25 8V20C22.25 20.1326 22.1973 20.2598 22.1036 20.3536C22.0098 20.4473 21.8826 20.5 21.75 20.5H3.75C3.61739 20.5 3.49021 20.4473 3.39645 20.3536C3.30268 20.2598 3.25 20.1326 3.25 20V4C3.25 3.86739 3.30268 3.74021 3.39645 3.64645C3.49021 3.55268 3.61739 3.5 3.75 3.5H18.25V7ZM4.75 8.5H4.25V9V19V19.5H4.75H20.75H21.25V19V9V8.5H20.75H4.75ZM4.75 4.5H4.25V5V7V7.5H4.75H16.75H17.25V7V5V4.5H16.75H4.75ZM18.25 13.5V14.5H16.25V13.5H18.25Z" stroke="#9CA0AF"/>
</g>
<defs>
<clipPath id="clip0_4254_9844">
<rect width="24" height="24" fill="white" transform="translate(0.75)"/>
</clipPath>
</defs>
</svg>
