<svg width="100" height="76" viewBox="0 0 100 76" fill="none" xmlns="http://www.w3.org/2000/svg">
<g clip-path="url(#clip0_783_8559)">
<path d="M44.8002 75.25H9.25384C7.67168 75.251 6.11716 74.8345 4.74659 74.0424C3.37601 73.2503 2.23773 72.1104 1.44621 70.7375C0.654688 69.3646 0.237841 67.807 0.237587 66.2214C0.237334 64.6359 0.653661 63.0782 1.44474 61.705L15.3209 37.625H41.3086L32.6361 52.675H75.984L72.0869 59.4475C69.3211 64.2484 65.3439 68.2358 60.5544 71.0095C55.765 73.7832 50.3318 75.2456 44.8002 75.25Z" fill="white"/>
<path d="M23.9935 22.575H67.3414L58.6688 37.625H84.6791L98.5552 13.545C99.346 12.1724 99.7623 10.6154 99.7624 9.03044C99.7625 7.44549 99.3463 5.88844 98.5557 4.51576C97.7651 3.14308 96.6278 2.00311 95.2583 1.21044C93.8888 0.417763 92.3352 0.000304836 90.7536 4.30688e-07H55.2073C49.6706 -0.000915466 44.2312 1.45899 39.436 4.23295C34.6408 7.00691 30.6589 10.9972 27.8905 15.8025L23.9935 22.575Z" fill="white"/>
</g>
<defs>
<clipPath id="clip0_783_8559">
<rect width="99.5433" height="75.25" fill="white" transform="translate(0.228348)"/>
</clipPath>
</defs>
</svg>
