<svg width="24" height="24" viewBox="0 0 24 24" fill="none" xmlns="http://www.w3.org/2000/svg">
<g clip-path="url(#clip0_4254_5171)">
<path d="M3.5 9.49003L3.5 9.48968C3.49995 9.41349 3.51731 9.33829 3.55076 9.26983C3.5842 9.20139 3.63284 9.14149 3.69296 9.09471C3.69298 9.0947 3.69299 9.09469 3.693 9.09468L11.693 2.87271L11.693 2.87268C11.7808 2.8044 11.8888 2.76733 12 2.76733C12.1112 2.76733 12.2192 2.8044 12.307 2.87268L12.307 2.87271L20.307 9.09468C20.3671 9.14146 20.4158 9.20137 20.4492 9.26983C20.4827 9.33829 20.5001 9.41349 20.5 9.48968V9.49003V20C20.5 20.1326 20.4473 20.2598 20.3536 20.3536C20.2598 20.4473 20.1326 20.5 20 20.5H4C3.86739 20.5 3.74021 20.4473 3.64645 20.3536C3.55268 20.2598 3.5 20.1326 3.5 20L3.5 9.49003ZM19 19.5H19.5V19V9.97803V9.73347L19.307 9.58334L12.307 4.13934L12 3.90062L11.693 4.13934L4.69305 9.58334L4.5 9.73347V9.97803V19V19.5H5H19ZM16.5 15.5V16.5H7.5V15.5H16.5Z" fill="#2932CC" stroke="#9CA0AF"/>
</g>
<defs>
<clipPath id="clip0_4254_5171">
<rect width="24" height="24" fill="white"/>
</clipPath>
</defs>
</svg>
