<svg width="20" height="20" viewBox="0 0 20 20" fill="none" xmlns="http://www.w3.org/2000/svg">
<g clip-path="url(#clip0_4236_6247)">
<path d="M10 18.3332C5.3975 18.3332 1.66667 14.6023 1.66667 9.99984C1.66667 5.39734 5.3975 1.6665 10 1.6665C14.6025 1.6665 18.3333 5.39734 18.3333 9.99984C18.3333 14.6023 14.6025 18.3332 10 18.3332ZM10 16.6665C11.7681 16.6665 13.4638 15.9641 14.714 14.7139C15.9643 13.4636 16.6667 11.7679 16.6667 9.99984C16.6667 8.23173 15.9643 6.53604 14.714 5.28579C13.4638 4.03555 11.7681 3.33317 10 3.33317C8.23189 3.33317 6.5362 4.03555 5.28596 5.28579C4.03571 6.53604 3.33333 8.23173 3.33333 9.99984C3.33333 11.7679 4.03571 13.4636 5.28596 14.7139C6.5362 15.9641 8.23189 16.6665 10 16.6665ZM9.16667 13.3332H6.66667V6.6665H9.16667V4.99984H10.8333V6.6665H11.6667C12.0536 6.6665 12.4328 6.77424 12.7619 6.97765C13.0911 7.18105 13.357 7.47209 13.5301 7.81814C13.7031 8.1642 13.7763 8.5516 13.7416 8.93693C13.7068 9.32227 13.5655 9.69032 13.3333 9.99984C13.5655 10.3094 13.7068 10.6774 13.7416 11.0627C13.7763 11.4481 13.7031 11.8355 13.5301 12.1815C13.357 12.5276 13.0911 12.8186 12.7619 13.022C12.4328 13.2254 12.0536 13.3332 11.6667 13.3332H10.8333V14.9998H9.16667V13.3332ZM8.33333 10.8332V11.6665H11.6667C11.7772 11.6665 11.8832 11.6226 11.9613 11.5445C12.0394 11.4663 12.0833 11.3603 12.0833 11.2498C12.0833 11.1393 12.0394 11.0333 11.9613 10.9552C11.8832 10.8771 11.7772 10.8332 11.6667 10.8332H8.33333ZM8.33333 8.33317V9.1665H11.6667C11.7772 9.1665 11.8832 9.12261 11.9613 9.04447C12.0394 8.96633 12.0833 8.86034 12.0833 8.74984C12.0833 8.63933 12.0394 8.53335 11.9613 8.45521C11.8832 8.37707 11.7772 8.33317 11.6667 8.33317H8.33333Z" fill="#2932CC"/>
</g>
<defs>
<clipPath id="clip0_4236_6247">
<rect width="20" height="20" fill="white"/>
</clipPath>
</defs>
</svg>
