<svg width="24" height="24" viewBox="0 0 24 24" fill="none" xmlns="http://www.w3.org/2000/svg">
<g clip-path="url(#clip0_4254_9868)">
<path d="M4.51667 21.5C4.6373 19.6935 5.40849 17.9849 6.6967 16.6967C8.10322 15.2902 10.0109 14.5 12 14.5C13.9891 14.5 15.8968 15.2902 17.3033 16.6967C18.5915 17.9849 19.3627 19.6935 19.4833 21.5H18.4808C18.3619 19.959 17.6968 18.5044 16.5962 17.4038C15.3772 16.1848 13.7239 15.5 12 15.5C10.2761 15.5 8.62279 16.1848 7.40381 17.4038C6.30322 18.5044 5.63807 19.959 5.51924 21.5H4.51667ZM12 12.5C8.96114 12.5 6.5 10.0389 6.5 7C6.5 3.96114 8.96114 1.5 12 1.5C15.0389 1.5 17.5 3.96114 17.5 7C17.5 10.0389 15.0389 12.5 12 12.5ZM12 11.5C14.4861 11.5 16.5 9.48614 16.5 7C16.5 4.51386 14.4861 2.5 12 2.5C9.51386 2.5 7.5 4.51386 7.5 7C7.5 9.48614 9.51386 11.5 12 11.5Z" fill="#2932CC" stroke="#9CA0AF"/>
</g>
<defs>
<clipPath id="clip0_4254_9868">
<rect width="24" height="24" fill="white"/>
</clipPath>
</defs>
</svg>
