<svg width="20" height="20" viewBox="0 0 20 20" fill="none" xmlns="http://www.w3.org/2000/svg">
<path d="M5.83334 3.33317V16.6665H14.1667V3.33317H5.83334ZM5.00001 1.6665H15C15.221 1.6665 15.433 1.7543 15.5893 1.91058C15.7455 2.06686 15.8333 2.27882 15.8333 2.49984V17.4998C15.8333 17.7209 15.7455 17.9328 15.5893 18.0891C15.433 18.2454 15.221 18.3332 15 18.3332H5.00001C4.77899 18.3332 4.56703 18.2454 4.41075 18.0891C4.25447 17.9328 4.16667 17.7209 4.16667 17.4998V2.49984C4.16667 2.27882 4.25447 2.06686 4.41075 1.91058C4.56703 1.7543 4.77899 1.6665 5.00001 1.6665ZM10 14.1665C10.221 14.1665 10.433 14.2543 10.5893 14.4106C10.7455 14.5669 10.8333 14.7788 10.8333 14.9998C10.8333 15.2209 10.7455 15.4328 10.5893 15.5891C10.433 15.7454 10.221 15.8332 10 15.8332C9.77899 15.8332 9.56703 15.7454 9.41075 15.5891C9.25447 15.4328 9.16667 15.2209 9.16667 14.9998C9.16667 14.7788 9.25447 14.5669 9.41075 14.4106C9.56703 14.2543 9.77899 14.1665 10 14.1665Z" fill="#2932CC"/>
</svg>
