<svg width="20" height="20" viewBox="0 0 20 20" fill="none" xmlns="http://www.w3.org/2000/svg">
<g clip-path="url(#clip0_4236_7015)">
<path d="M12.5 1.66651C13.0852 1.66644 13.6602 1.82045 14.167 2.11306C14.6738 2.40567 15.0947 2.82657 15.3873 3.33342C15.6799 3.84028 15.8338 4.41523 15.8337 5.00047C15.8336 5.5857 15.6794 6.1606 15.3867 6.66734L19.1667 6.66651V8.33318H17.5V16.6665C17.5 16.8875 17.4122 17.0995 17.2559 17.2558C17.0996 17.412 16.8877 17.4998 16.6667 17.4998H3.33333C3.11232 17.4998 2.90036 17.412 2.74408 17.2558C2.5878 17.0995 2.5 16.8875 2.5 16.6665V8.33318H0.833334V6.66651L4.61333 6.66734C4.19989 5.95142 4.06724 5.10739 4.24115 4.29915C4.41506 3.49092 4.88312 2.77615 5.55445 2.29364C6.22577 1.81112 7.05244 1.5953 7.87396 1.68807C8.69547 1.78085 9.45319 2.1756 10 2.79568C10.3122 2.44016 10.6967 2.15549 11.1279 1.96074C11.5591 1.76599 12.0269 1.66568 12.5 1.66651ZM9.16667 8.33318H4.16667V15.8332H9.16667V8.33318ZM15.8333 8.33318H10.8333V15.8332H15.8333V8.33318ZM7.5 3.33318C7.06751 3.33124 6.65121 3.4975 6.33904 3.79682C6.02687 4.09615 5.84328 4.50511 5.82705 4.93729C5.81082 5.36948 5.96323 5.79105 6.25208 6.11294C6.54092 6.43483 6.94359 6.63184 7.375 6.66234L7.5 6.66651H9.16667V4.99984C9.16668 4.60156 9.02407 4.21644 8.76466 3.91422C8.50525 3.61201 8.14619 3.41268 7.7525 3.35234L7.62417 3.33734L7.5 3.33318ZM12.5 3.33318C12.0795 3.33304 11.6745 3.49185 11.3662 3.77776C11.0579 4.06367 10.869 4.45555 10.8375 4.87484L10.8333 4.99984V6.66651H12.5C12.9205 6.66664 13.3255 6.50784 13.6338 6.22193C13.9421 5.93602 14.131 5.54414 14.1625 5.12484L14.1667 4.99984C14.1667 4.55782 13.9911 4.13389 13.6785 3.82133C13.3659 3.50877 12.942 3.33318 12.5 3.33318Z" fill="#2932CC"/>
</g>
<defs>
<clipPath id="clip0_4236_7015">
<rect width="20" height="20" fill="white"/>
</clipPath>
</defs>
</svg>
